# xmcd
#
# Track frame offsets:
#	150
#	14090
#	25785
#	43469
#	53959
#	67192
#	77753
#	91617
#	104114
#	114206
#	128436
#	151855
#	165086
#	179700
#	195421
#	210641
#	221170
#	232875
#
# Disc length: 3239 seconds
#
# Revision: 0
# Processed by: cddbd v1.5.2PL0 Copyright (c) Steve Scherf et al.
# Submitted via: audiograbber 1.83.01
#
DISCID=f10ca512
DTITLE=nineOclock - acoustic pop
DYEAR=1900
DGENRE=Pop
TTITLE0=Commongrave games
TTITLE1=Fragile
TTITLE2=Hero
TTITLE3=Just another damned ballad
TTITLE4=Unfriendly takeovers
TTITLE5=Unique
TTITLE6=What if
TTITLE7=Just good friends
TTITLE8=A song
TTITLE9=Ant-nation
TTITLE10=Everything
TTITLE11=Just a girl
TTITLE12=Popstar (Bonus)
TTITLE13=Popstar
TTITLE14=Questions
TTITLE15=Raindream
TTITLE16=The glaciers
TTITLE17=Think tank girl
EXTD=
EXTT0=
EXTT1=
EXTT2=
EXTT3=
EXTT4=
EXTT5=
EXTT6=
EXTT7=
EXTT8=
EXTT9=
EXTT10=
EXTT11=
EXTT12=
EXTT13=
EXTT14=
EXTT15=
EXTT16=
EXTT17=
PLAYORDER=
